<svg width="33" height="32" viewBox="0 0 33 32" fill="none" xmlns="http://www.w3.org/2000/svg">
<path d="M11.9955 17.5545C11.9861 17.0533 11.7827 16.5752 11.428 16.221L10 14.793L8.57199 16.221C8.2215 16.5718 8.01892 17.0437 8.006 17.5395C7.50588 17.5517 7.02913 17.7537 6.6725 18.1045L5.245 19.5325L6.673 20.9605C7.02335 21.3101 7.49421 21.5124 7.989 21.526C7.99857 22.0273 8.20196 22.5054 8.5565 22.86L9.9845 24.2875L11.4125 22.8595C11.7621 22.5091 11.9645 22.0383 11.978 21.5435C12.4792 21.5341 12.9572 21.3306 13.3115 20.976L14.7395 19.548L13.312 18.1205C12.9614 17.7707 12.4905 17.5683 11.9955 17.5545ZM9 19.5C9 18.9485 9.4485 18.5 10 18.5C10.5515 18.5 11 18.9485 11 19.5C11 20.0515 10.5515 20.5 10 20.5C9.4485 20.5 9 20.0515 9 19.5ZM9.279 16.928L10 16.207L10.721 16.928C10.898 17.1055 11 17.351 11 17.602C11 17.6585 10.9935 17.7145 10.984 17.7695C10.6852 17.5951 10.3459 17.5022 10 17.5C9.65367 17.502 9.31398 17.5952 9.015 17.77C8.98858 17.6187 8.99877 17.4634 9.0447 17.3169C9.09063 17.1704 9.17097 17.037 9.279 16.928ZM6.6585 19.532L7.379 18.8115C7.6055 18.585 7.936 18.5005 8.244 18.562C8.08617 18.8496 8.00232 19.1719 8 19.5C8 19.864 8.105 20.201 8.276 20.4955C7.962 20.5665 7.614 20.487 7.3795 20.253L6.6585 19.532ZM10.705 22.153L9.984 22.8735L9.2635 22.153C9.15044 22.0404 9.06765 21.901 9.02281 21.7479C8.97797 21.5948 8.97253 21.4328 9.007 21.277C9.023 21.268 9.04049 21.262 9.05599 21.2525C9.34508 21.4125 9.6696 21.4975 10 21.5C10.3465 21.5 10.6675 21.4035 10.952 21.248C10.971 21.323 10.984 21.4 10.984 21.479C10.984 21.7335 10.885 21.9725 10.705 22.153ZM12.604 20.2695C12.3765 20.497 12.036 20.5815 11.724 20.5145L11.719 20.5045C11.9009 20.2008 11.9979 19.8539 12 19.5C12 19.164 11.9085 18.8515 11.7615 18.573C12.0615 18.5225 12.384 18.6075 12.6045 18.8275L13.3255 19.548L12.604 20.2695Z" fill="#6B7280"/>
<path d="M29.5 8C28.1215 8 27 9.1215 27 10.5V13H20.5C19.924 13.0009 19.3659 13.2003 18.9198 13.5646C18.4736 13.9289 18.1666 14.4358 18.0505 15H18V8.5C18 7.397 17.103 6.5 16 6.5C15.634 6.5 15.2955 6.606 15 6.778V4.5C15 3.397 14.103 2.5 13 2.5C12.634 2.5 12.2955 2.606 12 2.778V2.5C12 1.397 11.103 0.5 10 0.5C8.897 0.5 8 1.397 8 2.5V2.778C7.69733 2.59804 7.35213 2.50207 7 2.5C5.897 2.5 5 3.397 5 4.5V10.555C4.67489 10.2211 4.28617 9.95567 3.85678 9.77446C3.42739 9.59326 2.96605 9.49994 2.5 9.5C1.673 9.5 1 10.173 1 11C1 12.026 1.0815 13.8975 1.2415 16.5635C1.3917 19.166 2.35675 21.6553 4 23.679V31.5H16V23.6495C17.0985 21.9528 17.7658 20.0134 17.944 18H18.0505C18.1665 18.5642 18.4735 19.0712 18.9197 19.4355C19.3659 19.7998 19.924 19.9992 20.5 20H28.5C30.43 20 32 18.43 32 16.5V10.5C32 9.1215 30.8785 8 29.5 8ZM18 16V17H15.618L14.0655 16.224C14.0415 16.2123 14.0222 16.1927 14.0107 16.1686C13.9993 16.1444 13.9964 16.1171 14.0025 16.0911C14.0086 16.0651 14.0233 16.0419 14.0443 16.0253C14.0653 16.0088 14.0913 15.9999 14.118 16H18ZM15.084 23.2225L15 23.3485V30.5H9.2405C9.43281 30.1631 9.70169 29.8761 10.0254 29.6624C10.3491 29.4486 10.7186 29.314 11.104 29.2695L11.888 29.1825C12.4689 29.1184 13.0056 28.8422 13.3954 28.4068C13.7851 27.9714 14.0004 27.4074 14 26.823C13.9993 26.2071 13.7544 25.6166 13.3189 25.1811C12.8834 24.7456 12.2929 24.5007 11.677 24.5H11.5C10.673 24.5 10 25.173 10 26C10 26.827 10.673 27.5 11.5 27.5H12V26.5H11.5C11.2245 26.5 11 26.2755 11 26C11 25.7245 11.2245 25.5 11.5 25.5H11.677C12.0278 25.5004 12.364 25.6399 12.6121 25.8879C12.8601 26.136 12.9996 26.4722 13 26.823C13.0003 27.1612 12.8758 27.4876 12.6503 27.7396C12.4247 27.9915 12.1141 28.1514 11.778 28.1885L10.994 28.2755C9.6955 28.4195 8.5975 29.2965 8.142 30.5H6.638C7.00856 29.2619 7.76653 28.1753 8.8005 27.4L8.2005 26.6C6.91567 27.5653 6.00049 28.9418 5.6075 30.5H5V23.319L4.884 23.18C3.30825 21.2963 2.38098 18.9553 2.2395 16.5035C2.083 13.895 2 11.9915 2 11C2 10.7245 2.2245 10.5 2.5 10.5C3.8785 10.5 5 11.6215 5 13V17H6V4.5C6 3.9485 6.4485 3.5 7 3.5C7.5515 3.5 8 3.9485 8 4.5V14H9V2.5C9 1.9485 9.4485 1.5 10 1.5C10.5515 1.5 11 1.9485 11 2.5V14H12V4.5C12 3.9485 12.4485 3.5 13 3.5C13.5515 3.5 14 3.9485 14 4.5V14H15V8.5C15 7.9485 15.4485 7.5 16 7.5C16.5515 7.5 17 7.9485 17 8.5V15H14.118C13.8216 15.0003 13.5374 15.1181 13.3277 15.3277C13.1181 15.5374 13.0003 15.8216 13 16.118C13 16.544 13.237 16.9275 13.618 17.118L15.171 17.8945C15.309 17.9635 15.4635 18 15.618 18H16.941C16.7605 19.867 16.1227 21.6607 15.084 23.2225ZM29.5 9C30.327 9 31 9.673 31 10.5V14.513C30.581 14.1955 30.065 14 29.5 14C28.935 14 28.419 14.1955 28 14.513V10.5C28 9.673 28.673 9 29.5 9ZM19 17.5V15.5C19 14.673 19.673 14 20.5 14H21V19H20.5C19.673 19 19 18.327 19 17.5ZM28.5 19H22V14H27V16.5C27 17.327 27.673 18 28.5 18C29.327 18 30 17.327 30 16.5V16H29V16.5C29 16.7755 28.7755 17 28.5 17C28.2245 17 28 16.7755 28 16.5C28 15.673 28.673 15 29.5 15C30.327 15 31 15.673 31 16.5C31 17.8785 29.8785 19 28.5 19Z" fill="#6B7280"/>
</svg>
