<svg width="25" height="24" viewBox="0 0 25 24" fill="none" xmlns="http://www.w3.org/2000/svg">
<g clip-path="url(#clip0_1_7509)">
<path d="M13.2014 19.1371H4.51105C3.48495 19.1371 2.65055 18.3027 2.65055 17.2766V5.4056C2.65055 4.37951 3.48495 3.5451 4.51105 3.5451H6.2604V3.98325C6.2604 4.38354 6.58498 4.70812 6.98527 4.70812C7.38556 4.70812 7.71014 4.38354 7.71014 3.98325V3.5451H16.3796V3.98325C16.3796 4.38354 16.7042 4.70812 17.1045 4.70812C17.5048 4.70812 17.8293 4.38354 17.8293 3.98325V3.5451H19.5723C20.5975 3.5451 21.4328 4.37951 21.4328 5.4056V10.5844C21.4328 10.9847 21.7573 11.3093 22.1576 11.3093C22.5579 11.3093 22.8825 10.9847 22.8825 10.5844V5.4056C22.8825 3.58054 21.3973 2.09536 19.5723 2.09536H17.8293V1.72487C17.8293 1.32458 17.5048 1 17.1045 1C16.7042 1 16.3796 1.32458 16.3796 1.72487V2.09536H7.71014V1.72487C7.71014 1.32458 7.38556 1 6.98527 1C6.58498 1 6.2604 1.32458 6.2604 1.72487V2.09536H4.51105C2.68599 2.09536 1.20081 3.58054 1.20081 5.4056V17.2774C1.20081 19.1032 2.68599 20.5876 4.51105 20.5876H13.2014C13.6017 20.5876 13.9263 20.263 13.9263 19.8627C13.9263 19.4625 13.6017 19.1371 13.2014 19.1371Z" fill="#6B7280"/>
<path d="M6.83231 8.80664C6.37 8.80664 5.99548 9.18116 5.99548 9.64346C5.99548 10.1058 6.37 10.4803 6.83231 10.4803C7.29461 10.4803 7.66913 10.1058 7.66913 9.64346C7.66913 9.18116 7.29461 8.80664 6.83231 8.80664Z" fill="#6B7280"/>
<path d="M12.0424 8.80664C11.5801 8.80664 11.2056 9.18116 11.2056 9.64346C11.2056 10.1058 11.5801 10.4803 12.0424 10.4803C12.5047 10.4803 12.8792 10.1058 12.8792 9.64346C12.8792 9.18116 12.5039 8.80664 12.0424 8.80664Z" fill="#6B7280"/>
<path d="M16.4155 9.64346C16.4155 10.1058 16.79 10.4803 17.2523 10.4803C17.7147 10.4803 18.0892 10.1058 18.0892 9.64346C18.0892 9.18116 17.7147 8.80664 17.2523 8.80664C16.79 8.80664 16.4155 9.18116 16.4155 9.64346Z" fill="#6B7280"/>
<path d="M6.83231 13.3665C6.37 13.3665 5.99548 13.741 5.99548 14.2033C5.99548 14.6656 6.37 15.0401 6.83231 15.0401C7.29461 15.0401 7.66913 14.6656 7.66913 14.2033C7.66913 13.741 7.29461 13.3665 6.83231 13.3665Z" fill="#6B7280"/>
<path d="M12.0424 13.3665C11.5801 13.3665 11.2056 13.741 11.2056 14.2033C11.2056 14.6656 11.5801 15.0401 12.0424 15.0401C12.5047 15.0401 12.8792 14.6656 12.8792 14.2033C12.8792 13.741 12.5039 13.3665 12.0424 13.3665Z" fill="#6B7280"/>
<path d="M20.051 12.368C17.212 12.368 14.9012 14.678 14.9012 17.517C14.9012 20.3553 17.2112 22.666 20.051 22.666C22.8909 22.666 25.2009 20.3561 25.2009 17.517C25.2 14.6772 22.8901 12.368 20.051 12.368ZM20.051 21.2147C18.0117 21.2147 16.3518 19.5555 16.3518 17.5162C16.3518 15.4769 18.0117 13.817 20.051 13.817C22.0904 13.817 23.7503 15.4769 23.7503 17.5162C23.7503 19.5555 22.0904 21.2147 20.051 21.2147Z" fill="#6B7280"/>
<path d="M21.104 16.1988L19.5157 17.4786L19.1202 16.9736C18.8722 16.6587 18.4187 16.6039 18.1022 16.8512C17.7873 17.0985 17.7325 17.5535 17.9798 17.8692L18.8287 18.9517C18.9479 19.1039 19.1235 19.203 19.316 19.2247C19.3433 19.228 19.3707 19.2296 19.3989 19.2296C19.5632 19.2296 19.7243 19.1732 19.8532 19.0693L22.0133 17.3296C22.3258 17.0775 22.3741 16.6216 22.1236 16.31C21.8723 15.9983 21.4157 15.9467 21.104 16.1988Z" fill="#6B7280"/>
</g>
<defs>
<clipPath id="clip0_1_7509">
<rect width="24" height="24" fill="white" transform="translate(0.900024)"/>
</clipPath>
</defs>
</svg>
