<svg width="25" height="24" viewBox="0 0 25 24" fill="none" xmlns="http://www.w3.org/2000/svg">
<path d="M13.0283 12.8372C9.48974 12.8372 6.60974 9.95721 6.60974 6.4186C6.60974 2.88 9.48974 0 13.0283 0C16.567 0 19.447 2.88 19.447 6.4186C19.447 9.95721 16.567 12.8372 13.0283 12.8372ZM13.0283 1.67442C10.4163 1.67442 8.28416 3.80651 8.28416 6.4186C8.28416 9.0307 10.4163 11.1628 13.0283 11.1628C15.6404 11.1628 17.7725 9.0307 17.7725 6.4186C17.7725 3.80651 15.6404 1.67442 13.0283 1.67442Z" fill="#6B7280"/>
<path d="M22.6172 24C22.1596 24 21.78 23.6205 21.78 23.1628C21.78 19.3117 17.8508 16.1861 13.0285 16.1861C8.20613 16.1861 4.27684 19.3117 4.27684 23.1628C4.27684 23.6205 3.8973 24 3.43963 24C2.98195 24 2.60242 23.6205 2.60242 23.1628C2.60242 18.3963 7.27962 14.5117 13.0285 14.5117C18.7773 14.5117 23.4544 18.3963 23.4544 23.1628C23.4544 23.6205 23.0749 24 22.6172 24Z" fill="#6B7280"/>
</svg>
