<svg width="35" height="39" viewBox="0 0 35 39" fill="none" xmlns="http://www.w3.org/2000/svg">
<g filter="url(#filter0_d_1_7484)">
<path d="M14 19H7.67214L6.99464 14.4268L6.00539 14.5733L6.6612 19H5.00001C4.93244 19 4.86557 19.0137 4.80344 19.0403C4.74131 19.0668 4.6852 19.1057 4.63852 19.1546C4.59183 19.2034 4.55554 19.2612 4.53182 19.3245C4.5081 19.3878 4.49745 19.4552 4.50052 19.5227L5.00052 30.5227C5.00635 30.6512 5.06153 30.7726 5.15457 30.8615C5.2476 30.9504 5.37133 31 5.50001 31H13.5C13.6287 31 13.7524 30.9504 13.8455 30.8615C13.9385 30.7726 13.9937 30.6512 13.9995 30.5227L14.4995 19.5227C14.5026 19.4552 14.4919 19.3878 14.4682 19.3245C14.4445 19.2612 14.4082 19.2034 14.3615 19.1546C14.3148 19.1057 14.2587 19.0668 14.1966 19.0403C14.1345 19.0137 14.0676 19 14 19ZM6.80933 20L7.10983 22.0282C6.58381 22.088 6.07978 22.273 5.63995 22.5676L5.52326 20H6.80933ZM13.0222 30H5.97783L5.69251 23.7233C5.78722 23.6646 5.88098 23.6044 5.97376 23.5428C6.34789 23.2967 6.68001 23.0796 7.25639 23.0178L8.00533 28.073L8.99458 27.9265L8.27583 23.0759C8.65976 23.1719 8.92895 23.3481 9.22445 23.5425C9.72833 23.8738 10.2995 24.2498 11.3995 24.2498C11.8356 24.257 12.2692 24.1833 12.6785 24.0324L12.3217 23.0983C12.0264 23.206 11.7136 23.2574 11.3994 23.25C10.5994 23.25 10.2169 22.9985 9.77439 22.7073C9.35708 22.4328 8.89276 22.1286 8.12145 22.0319L7.82033 20H13.4766L13.0222 30Z" fill="#6B7280"/>
<path d="M30.375 16.7887L29.6857 10.2382C29.6222 9.62345 29.3327 9.05412 28.8734 8.64059C28.414 8.22706 27.8175 7.99879 27.1994 8H24.5947L24.499 6.46875C24.4911 6.3418 24.435 6.22266 24.3423 6.13557C24.2496 6.04849 24.1272 6.00001 24 6H23.5C23.4994 5.46975 23.2885 4.96139 22.9136 4.58644C22.5386 4.2115 22.0303 4.0006 21.5 4H20V3.5C20 3.10218 19.842 2.72064 19.5607 2.43934C19.2794 2.15804 18.8978 2 18.5 2C18.1022 2 17.7206 2.15804 17.4393 2.43934C17.158 2.72064 17 3.10218 17 3.5V4H15.5C14.9697 4.0006 14.4614 4.2115 14.0864 4.58644C13.7115 4.96139 13.5006 5.46975 13.5 6C12.9697 6.0006 12.4614 6.2115 12.0864 6.58644C11.7115 6.96139 11.5006 7.46975 11.5 8C11.5 8.06566 11.5129 8.13068 11.5381 8.19135C11.5632 8.25201 11.6 8.30713 11.6464 8.35356L12.9799 9.68706L12.1927 17.9526L13.1882 18.0474L13.3148 16.7185C14.0898 16.6226 14.5562 16.3176 14.974 16.0427C15.3977 15.7639 15.7672 15.5222 16.5 15.502V24.5C16.5 25.0304 16.7107 25.5391 17.0858 25.9142C17.4609 26.2893 17.9696 26.5 18.5 26.5C19.0304 26.5 19.5391 26.2893 19.9142 25.9142C20.2893 25.5391 20.5 25.0304 20.5 24.5V16.7478C21.5331 16.7254 22.0858 16.3639 22.5739 16.043C22.7703 15.9051 22.9788 15.7852 23.1968 15.6847L22.803 14.7654C22.5303 14.8883 22.2696 15.0364 22.0242 15.2075C21.6006 15.486 21.2314 15.7276 20.4998 15.748V9C21.03 8.9994 21.5384 8.7885 21.9133 8.41356C22.2882 8.03861 22.4992 7.53025 22.4998 7H23.53L24.8679 28.4062C24.8807 28.6107 24.8515 28.8156 24.7821 29.0084C24.7127 29.2011 24.6045 29.3776 24.4643 29.5269C24.324 29.6762 24.1547 29.7952 23.9667 29.8766C23.7787 29.958 23.576 30 23.3711 30H15V31H23.3711C23.7126 31 24.0504 30.93 24.3637 30.7945C24.6771 30.6589 24.9594 30.4606 25.1931 30.2117C25.4269 29.9629 25.6072 29.6688 25.723 29.3476C25.8388 29.0264 25.8875 28.6848 25.8662 28.3441L24.8906 12.7338L25.3228 12.5485C25.4236 12.5053 25.5327 12.4847 25.6424 12.4882C25.7521 12.4918 25.8597 12.5194 25.9576 12.569C26.0554 12.6187 26.1412 12.6892 26.2088 12.7756C26.2765 12.862 26.3243 12.9623 26.349 13.0692L27.325 17.2992C27.414 17.6833 27.6462 18.019 27.9741 18.2379C28.302 18.4568 28.7011 18.5425 29.0899 18.4774C29.4788 18.4123 29.8282 18.2013 30.067 17.8876C30.3058 17.5738 30.4159 17.1808 30.375 16.7887ZM18 3.5C18 3.36739 18.0527 3.24021 18.1464 3.14645C18.2402 3.05268 18.3674 3 18.5 3C18.6326 3 18.7598 3.05268 18.8536 3.14645C18.9473 3.24021 19 3.36739 19 3.5V4H18V3.5ZM15.5 5H21.5C21.7651 5.00031 22.0193 5.10577 22.2068 5.29324C22.3942 5.48071 22.4997 5.73488 22.5 6H14.5C14.5003 5.73488 14.6058 5.48071 14.7932 5.29324C14.9807 5.10577 15.2349 5.00031 15.5 5ZM14.4244 15.2072C14.1126 15.4124 13.8307 15.5969 13.4129 15.6885L13.9978 9.54737C14.0047 9.47405 13.9954 9.40009 13.9705 9.33078C13.9456 9.26147 13.9056 9.19852 13.8536 9.14644L12.5179 7.81081C12.5622 7.58275 12.6844 7.37716 12.8635 7.22925C13.0427 7.08133 13.2677 7.00029 13.5 7H14.5C14.5006 7.53025 14.7115 8.03861 15.0864 8.41356C15.4614 8.7885 15.9697 8.9994 16.5 9V14.5021C15.4657 14.5243 14.9125 14.886 14.4244 15.2072ZM18.5 25.5C18.2349 25.4997 17.9807 25.3942 17.7932 25.2068C17.6058 25.0193 17.5003 24.7651 17.5 24.5V15.6452C17.7564 15.7487 17.9996 15.8821 18.2246 16.0427C18.5691 16.2694 18.9453 16.5165 19.5 16.6503V24.5C19.4997 24.7651 19.3942 25.0193 19.2068 25.2068C19.0193 25.3942 18.7651 25.4997 18.5 25.5ZM20.5 8H20C19.8674 8 19.7402 8.05268 19.6464 8.14645C19.5527 8.24021 19.5 8.36739 19.5 8.5V15.6053C19.2432 15.5018 18.9996 15.3682 18.7743 15.2073C18.4299 14.9808 18.0541 14.7339 17.5 14.6V8.5C17.5 8.36739 17.4473 8.24021 17.3536 8.14645C17.2598 8.05268 17.1326 8 17 8H16.5C16.2349 7.99969 15.9807 7.89423 15.7932 7.70676C15.6058 7.51929 15.5003 7.26512 15.5 7H21.5C21.4997 7.26512 21.3942 7.51929 21.2068 7.70676C21.0193 7.89423 20.7651 7.99969 20.5 8ZM27.3234 12.8444C27.2658 12.5949 27.1542 12.361 26.9963 12.1594C26.8385 11.9577 26.6384 11.7931 26.41 11.6773C26.1817 11.5614 25.9307 11.4971 25.6747 11.4888C25.4188 11.4805 25.1642 11.5285 24.9288 11.6294L24.8244 11.6742L24.6572 9H27.1994C27.5703 8.99926 27.9282 9.13622 28.2038 9.38434C28.4794 9.63245 28.6531 9.97405 28.6912 10.3429L29.2341 15.5H27.9362L27.3234 12.8444ZM29.2428 17.3183C29.1756 17.3929 29.0892 17.4477 28.993 17.4767C28.8968 17.5057 28.7945 17.5077 28.6972 17.4826C28.5999 17.4575 28.5114 17.4061 28.4413 17.3342C28.3712 17.2622 28.3221 17.1724 28.2995 17.0745L28.1669 16.5H29.3393L29.3808 16.8934C29.3892 16.9699 29.3813 17.0474 29.3575 17.1207C29.3337 17.1939 29.2946 17.2613 29.2428 17.3183Z" fill="#6B7280"/>
</g>
<defs>
<filter id="filter0_d_1_7484" x="-3.5" y="0" width="40" height="40" filterUnits="userSpaceOnUse" color-interpolation-filters="sRGB">
<feFlood flood-opacity="0" result="BackgroundImageFix"/>
<feColorMatrix in="SourceAlpha" type="matrix" values="0 0 0 0 0 0 0 0 0 0 0 0 0 0 0 0 0 0 127 0" result="hardAlpha"/>
<feOffset dy="4"/>
<feGaussianBlur stdDeviation="2"/>
<feComposite in2="hardAlpha" operator="out"/>
<feColorMatrix type="matrix" values="0 0 0 0 0 0 0 0 0 0 0 0 0 0 0 0 0 0 0.25 0"/>
<feBlend mode="normal" in2="BackgroundImageFix" result="effect1_dropShadow_1_7484"/>
<feBlend mode="normal" in="SourceGraphic" in2="effect1_dropShadow_1_7484" result="shape"/>
</filter>
</defs>
</svg>
