<svg width="14" height="14" viewBox="0 0 14 14" fill="none" xmlns="http://www.w3.org/2000/svg">
<path d="M5.76329 5.76343C5.59135 5.92364 5.45344 6.11684 5.3578 6.33151C5.26215 6.54617 5.21072 6.7779 5.20657 7.01287C5.20243 7.24785 5.24565 7.48125 5.33367 7.69916C5.42168 7.91706 5.55268 8.11501 5.71886 8.28118C5.88504 8.44736 6.08299 8.57837 6.30089 8.66638C6.5188 8.7544 6.7522 8.79762 6.98717 8.79347C7.22214 8.78933 7.45388 8.7379 7.66854 8.64225C7.88321 8.5466 8.07641 8.4087 8.23662 8.23676" stroke="#6B7280" stroke-linecap="round" stroke-linejoin="round"/>
<path d="M6.25916 2.96341C6.50492 2.9328 6.75232 2.91721 6.99999 2.91675C11.0833 2.91675 12.8333 7.00008 12.8333 7.00008C12.5725 7.5584 12.2454 8.08329 11.8592 8.56341" stroke="#6B7280" stroke-linecap="round" stroke-linejoin="round"/>
<path d="M3.85579 3.85571C2.69569 4.64591 1.76738 5.73128 1.16663 6.99988C1.16663 6.99988 2.91663 11.0832 6.99996 11.0832C8.11757 11.0862 9.21125 10.7595 10.1441 10.144" stroke="#6B7280" stroke-linecap="round" stroke-linejoin="round"/>
</svg>
